<svg xmlns="http://www.w3.org/2000/svg" viewBox="0 0 132 96" role="img" aria-labelledby="title desc">
  <title id="title">NB</title>
  <desc id="desc">Neon Break initials in light blue and white.</desc>
  <defs>
    <clipPath id="n-boundary">
      <rect x="0" y="0" width="59.5" height="96"/>
    </clipPath>
  </defs>
  <path d="M12 82V14h11l34 48V14h11v68H57L24 34v48H12Z" fill="#f5f7fb" clip-path="url(#n-boundary)"/>
  <path fill="#72f1ff" fill-rule="evenodd" d="M59 14h39c16 0 25 7 25 19 0 8-4 14-12 17 9 3 14 8 14 16 0 11-9 16-27 16H59V14Zm12 11v19h26c9 0 13-3 13-10 0-6-4-9-13-9H71Zm0 30v16h27c9 0 14-3 14-8s-5-8-14-8H71Z"/>
</svg>
